<?xml version="1.0" standalone="no"?><!DOCTYPE svg PUBLIC "-//W3C//DTD SVG 1.1//EN" "http://www.w3.org/Graphics/SVG/1.1/DTD/svg11.dtd"><svg t="1712632911995" class="icon" viewBox="0 0 1024 1024" version="1.1" xmlns="http://www.w3.org/2000/svg" p-id="4461" xmlns:xlink="http://www.w3.org/1999/xlink" width="32" height="32"><path d="M713.824 1.312l237.784 237.664v705.144c0 43.216-35.968 78.568-79.92 78.568H152.32c-43.96 0-79.928-35.36-79.928-78.56V79.872c0-43.216 35.968-78.568 79.92-78.568h561.512z" fill="#BD68D9" p-id="4462"></path><path d="M711.824 1.312l239.784 235.704H791.76c-43.96 0-79.928-35.36-79.928-78.568V1.312z" fill="#FFFFFF" fill-opacity=".551" p-id="4463"></path><path d="M508 548m-244 0a244 244 0 1 0 488 0 244 244 0 1 0-488 0Z" fill="#FFFFFF" p-id="4464"></path><path d="M508 548m-188 0a188 188 0 1 0 376 0 188 188 0 1 0-376 0Z" fill="#BD68D9" p-id="4465"></path><path d="M615.56 572.264L479.68 668.32a20.128 20.128 0 0 1-27.976-4.712A19.888 19.888 0 0 1 448 652.04v-192.08A20.008 20.008 0 0 1 468.064 440c4.16 0 8.224 1.288 11.616 3.688l135.88 96.04a19.888 19.888 0 0 1 0 32.536z" fill="#FFFFFF" p-id="4466"></path></svg>